<?xml version="1.0" encoding="UTF-8" standalone="no"?>
<!-- Created with Inkscape (http://www.inkscape.org/) -->

<svg
   xmlns:dc="http://purl.org/dc/elements/1.1/"
   xmlns:cc="http://creativecommons.org/ns#"
   xmlns:rdf="http://www.w3.org/1999/02/22-rdf-syntax-ns#"
   xmlns:svg="http://www.w3.org/2000/svg"
   xmlns="http://www.w3.org/2000/svg"
   xmlns:sodipodi="http://sodipodi.sourceforge.net/DTD/sodipodi-0.dtd"
   xmlns:inkscape="http://www.inkscape.org/namespaces/inkscape"
   width="64"
   height="64"
   viewBox="0 0 16.933332 16.933334"
   version="1.1"
   id="svg835"
   inkscape:version="0.92.4 (5da689c313, 2019-01-14)"
   sodipodi:docname="bush.svg">
  <defs
     id="defs829" />
  <sodipodi:namedview
     id="base"
     pagecolor="#ffffff"
     bordercolor="#666666"
     borderopacity="1.0"
     inkscape:pageopacity="0.0"
     inkscape:pageshadow="2"
     inkscape:zoom="7.9195959"
     inkscape:cx="32.552776"
     inkscape:cy="28.686811"
     inkscape:document-units="mm"
     inkscape:current-layer="layer1"
     showgrid="false"
     units="px"
     inkscape:pagecheckerboard="true"
     inkscape:window-width="1280"
     inkscape:window-height="962"
     inkscape:window-x="-8"
     inkscape:window-y="-8"
     inkscape:window-maximized="1" />
  <metadata
     id="metadata832">
    <rdf:RDF>
      <cc:Work
         rdf:about="">
        <dc:format>image/svg+xml</dc:format>
        <dc:type
           rdf:resource="http://purl.org/dc/dcmitype/StillImage" />
        <dc:title></dc:title>
      </cc:Work>
    </rdf:RDF>
  </metadata>
  <g
     inkscape:label="Calque 1"
     inkscape:groupmode="layer"
     id="layer1"
     transform="translate(0,-280.06665)">
    <path
       sodipodi:type="star"
       style="fill:#00a100;fill-opacity:1;stroke:#000000;stroke-width:0.69999999;stroke-linejoin:miter;stroke-miterlimit:4;stroke-dasharray:none;stroke-dashoffset:0;stroke-opacity:1;paint-order:normal"
       id="path1380"
       sodipodi:sides="11"
       sodipodi:cx="8.9869375"
       sodipodi:cy="289.04871"
       sodipodi:r1="8.9376831"
       sodipodi:r2="7.5076537"
       sodipodi:arg1="0.82770095"
       sodipodi:arg2="1.1133003"
       inkscape:flatsided="false"
       inkscape:rounded="0.44"
       inkscape:randomized="-0.022"
       d="m 14.954632,295.70721 c -0.89276,0.80592 -1.519537,-0.33668 -2.591095,0.19862 -1.071558,0.5353 -0.509671,1.75746 -1.711859,1.93515 -1.2021891,0.17769 -1.3611765,-1.29615 -2.5483203,-1.43085 -1.1871436,-0.13469 -1.5469661,1.32042 -2.6435074,0.85578 -1.0965413,-0.46463 -0.2227361,-1.82606 -1.1697977,-2.55151 -0.9470615,-0.72546 -1.8838693,0.28431 -2.5818458,-0.68661 -0.6979765,-0.97092 0.5754733,-1.56201 0.2158817,-2.71062 -0.3595915,-1.14861 -1.67412387,-0.65859 -1.70396724,-1.86795 -0.0298434,-1.20937 1.01133504,-1.2181 1.31033614,-2.38679 0.2990012,-1.16869 -0.87454026,-1.61817 -0.2259083,-2.64188 0.6486319,-1.02371 1.8137067,-0.0421 2.6939683,-0.87714 0.8802614,-0.83498 -0.051698,-1.91162 1.0308149,-2.43295 1.0825132,-0.52133 1.5417221,0.80841 2.7353989,0.6123 1.1936767,-0.19611 1.0262058,-1.69224 2.2107082,-1.56669 1.1845026,0.12554 0.7622416,1.29519 1.8490086,1.78996 1.086766,0.49477 1.900525,-0.64794 2.861268,0.0901 0.960743,0.73807 -0.197252,1.91307 0.501496,2.90338 0.698749,0.9903 1.850206,0.24459 2.189091,1.4129 0.338884,1.16831 -1.002655,1.24347 -0.9389,2.45586 0.06375,1.21239 1.320117,1.53345 1.003136,2.68904 -0.316981,1.15558 -1.408045,0.35082 -2.035097,1.38429 -0.627052,1.03347 0.441951,2.01967 -0.45081,2.82558 z"
       inkscape:transform-center-x="-0.0030349271"
       inkscape:transform-center-y="0.066924442"
       transform="matrix(0.94443839,0,0,0.91820761,0.02757107,23.185176)" />
    <path
       sodipodi:type="star"
       style="fill:#00a100;fill-opacity:1;stroke:#000000;stroke-width:0.69999999;stroke-linejoin:miter;stroke-miterlimit:4;stroke-dasharray:none;stroke-dashoffset:0;stroke-opacity:1;paint-order:normal"
       id="path1380-7"
       sodipodi:sides="11"
       sodipodi:cx="8.9869375"
       sodipodi:cy="289.04871"
       sodipodi:r1="8.9376831"
       sodipodi:r2="7.5076537"
       sodipodi:arg1="0.82770095"
       sodipodi:arg2="1.1133003"
       inkscape:flatsided="false"
       inkscape:rounded="0.44"
       inkscape:randomized="-0.022"
       d="m 14.954632,295.70721 c -0.89276,0.80592 -1.519537,-0.33668 -2.591095,0.19862 -1.071558,0.5353 -0.509671,1.75746 -1.711859,1.93515 -1.2021891,0.17769 -1.3611765,-1.29615 -2.5483203,-1.43085 -1.1871436,-0.13469 -1.5469661,1.32042 -2.6435074,0.85578 -1.0965413,-0.46463 -0.2227361,-1.82606 -1.1697977,-2.55151 -0.9470615,-0.72546 -1.8838693,0.28431 -2.5818458,-0.68661 -0.6979765,-0.97092 0.5754733,-1.56201 0.2158817,-2.71062 -0.3595915,-1.14861 -1.67412387,-0.65859 -1.70396724,-1.86795 -0.0298434,-1.20937 1.01133504,-1.2181 1.31033614,-2.38679 0.2990012,-1.16869 -0.87454026,-1.61817 -0.2259083,-2.64188 0.6486319,-1.02371 1.8137067,-0.0421 2.6939683,-0.87714 0.8802614,-0.83498 -0.051698,-1.91162 1.0308149,-2.43295 1.0825132,-0.52133 1.5417221,0.80841 2.7353989,0.6123 1.1936767,-0.19611 1.0262058,-1.69224 2.2107082,-1.56669 1.1845026,0.12554 0.7622416,1.29519 1.8490086,1.78996 1.086766,0.49477 1.900525,-0.64794 2.861268,0.0901 0.960743,0.73807 -0.197252,1.91307 0.501496,2.90338 0.698749,0.9903 1.850206,0.24459 2.189091,1.4129 0.338884,1.16831 -1.002655,1.24347 -0.9389,2.45586 0.06375,1.21239 1.320117,1.53345 1.003136,2.68904 -0.316981,1.15558 -1.408045,0.35082 -2.035097,1.38429 -0.627052,1.03347 0.441951,2.01967 -0.45081,2.82558 z"
       inkscape:transform-center-x="-0.0022910099"
       inkscape:transform-center-y="0.054131475"
       transform="matrix(0.71293088,0,0,0.74268284,2.0769676,73.899359)" />
    <path
       sodipodi:type="star"
       style="fill:#00a100;fill-opacity:1;stroke:#000000;stroke-width:0.69999999;stroke-linejoin:miter;stroke-miterlimit:4;stroke-dasharray:none;stroke-dashoffset:0;stroke-opacity:1;paint-order:normal"
       id="path1380-7-3"
       sodipodi:sides="11"
       sodipodi:cx="8.9869375"
       sodipodi:cy="289.04871"
       sodipodi:r1="8.9376831"
       sodipodi:r2="7.5076537"
       sodipodi:arg1="0.82770095"
       sodipodi:arg2="1.1133003"
       inkscape:flatsided="false"
       inkscape:rounded="0.44"
       inkscape:randomized="-0.022"
       d="m 14.954632,295.70721 c -0.89276,0.80592 -1.519537,-0.33668 -2.591095,0.19862 -1.071558,0.5353 -0.509671,1.75746 -1.711859,1.93515 -1.2021891,0.17769 -1.3611765,-1.29615 -2.5483203,-1.43085 -1.1871436,-0.13469 -1.5469661,1.32042 -2.6435074,0.85578 -1.0965413,-0.46463 -0.2227361,-1.82606 -1.1697977,-2.55151 -0.9470615,-0.72546 -1.8838693,0.28431 -2.5818458,-0.68661 -0.6979765,-0.97092 0.5754733,-1.56201 0.2158817,-2.71062 -0.3595915,-1.14861 -1.67412387,-0.65859 -1.70396724,-1.86795 -0.0298434,-1.20937 1.01133504,-1.2181 1.31033614,-2.38679 0.2990012,-1.16869 -0.87454026,-1.61817 -0.2259083,-2.64188 0.6486319,-1.02371 1.8137067,-0.0421 2.6939683,-0.87714 0.8802614,-0.83498 -0.051698,-1.91162 1.0308149,-2.43295 1.0825132,-0.52133 1.5417221,0.80841 2.7353989,0.6123 1.1936767,-0.19611 1.0262058,-1.69224 2.2107082,-1.56669 1.1845026,0.12554 0.7622416,1.29519 1.8490086,1.78996 1.086766,0.49477 1.900525,-0.64794 2.861268,0.0901 0.960743,0.73807 -0.197252,1.91307 0.501496,2.90338 0.698749,0.9903 1.850206,0.24459 2.189091,1.4129 0.338884,1.16831 -1.002655,1.24347 -0.9389,2.45586 0.06375,1.21239 1.320117,1.53345 1.003136,2.68904 -0.316981,1.15558 -1.408045,0.35082 -2.035097,1.38429 -0.627052,1.03347 0.441951,2.01967 -0.45081,2.82558 z"
       inkscape:transform-center-x="-0.0014652954"
       inkscape:transform-center-y="0.036037977"
       transform="matrix(0.455984,0,0,0.49451854,4.3515629,145.60127)" />
    <path
       sodipodi:type="star"
       style="fill:#00a100;fill-opacity:1;stroke:#000000;stroke-width:0.69999999;stroke-linejoin:miter;stroke-miterlimit:4;stroke-dasharray:none;stroke-dashoffset:0;stroke-opacity:1;paint-order:normal"
       id="path1380-7-3-8"
       sodipodi:sides="11"
       sodipodi:cx="8.9869375"
       sodipodi:cy="289.04871"
       sodipodi:r1="8.9376831"
       sodipodi:r2="7.5076537"
       sodipodi:arg1="0.82770095"
       sodipodi:arg2="1.1133003"
       inkscape:flatsided="false"
       inkscape:rounded="0.44"
       inkscape:randomized="-0.022"
       d="m 14.954632,295.70721 c -0.89276,0.80592 -1.519537,-0.33668 -2.591095,0.19862 -1.071558,0.5353 -0.509671,1.75746 -1.711859,1.93515 -1.2021891,0.17769 -1.3611765,-1.29615 -2.5483203,-1.43085 -1.1871436,-0.13469 -1.5469661,1.32042 -2.6435074,0.85578 -1.0965413,-0.46463 -0.2227361,-1.82606 -1.1697977,-2.55151 -0.9470615,-0.72546 -1.8838693,0.28431 -2.5818458,-0.68661 -0.6979765,-0.97092 0.5754733,-1.56201 0.2158817,-2.71062 -0.3595915,-1.14861 -1.67412387,-0.65859 -1.70396724,-1.86795 -0.0298434,-1.20937 1.01133504,-1.2181 1.31033614,-2.38679 0.2990012,-1.16869 -0.87454026,-1.61817 -0.2259083,-2.64188 0.6486319,-1.02371 1.8137067,-0.0421 2.6939683,-0.87714 0.8802614,-0.83498 -0.051698,-1.91162 1.0308149,-2.43295 1.0825132,-0.52133 1.5417221,0.80841 2.7353989,0.6123 1.1936767,-0.19611 1.0262058,-1.69224 2.2107082,-1.56669 1.1845026,0.12554 0.7622416,1.29519 1.8490086,1.78996 1.086766,0.49477 1.900525,-0.64794 2.861268,0.0901 0.960743,0.73807 -0.197252,1.91307 0.501496,2.90338 0.698749,0.9903 1.850206,0.24459 2.189091,1.4129 0.338884,1.16831 -1.002655,1.24347 -0.9389,2.45586 0.06375,1.21239 1.320117,1.53345 1.003136,2.68904 -0.316981,1.15558 -1.408045,0.35082 -2.035097,1.38429 -0.627052,1.03347 0.441951,2.01967 -0.45081,2.82558 z"
       inkscape:transform-center-x="-0.00060641663"
       inkscape:transform-center-y="0.013166846"
       transform="matrix(0.18870709,0,0,0.18073382,6.7176031,236.26291)" />
  </g>
</svg>
