<?xml version="1.0" encoding="UTF-8" standalone="no"?>
<!-- Created with Inkscape (http://www.inkscape.org/) -->

<svg
   xmlns:dc="http://purl.org/dc/elements/1.1/"
   xmlns:cc="http://creativecommons.org/ns#"
   xmlns:rdf="http://www.w3.org/1999/02/22-rdf-syntax-ns#"
   xmlns:svg="http://www.w3.org/2000/svg"
   xmlns="http://www.w3.org/2000/svg"
   xmlns:sodipodi="http://sodipodi.sourceforge.net/DTD/sodipodi-0.dtd"
   xmlns:inkscape="http://www.inkscape.org/namespaces/inkscape"
   width="128"
   height="128"
   viewBox="0 0 33.866666 33.866666"
   version="1.1"
   id="svg5488"
   inkscape:version="0.92.4 (5da689c313, 2019-01-14)"
   sodipodi:docname="katana.svg">
  <defs
     id="defs5482" />
  <sodipodi:namedview
     id="base"
     pagecolor="#ffffff"
     bordercolor="#666666"
     borderopacity="1.0"
     inkscape:pageopacity="0.0"
     inkscape:pageshadow="2"
     inkscape:zoom="16"
     inkscape:cx="16.716955"
     inkscape:cy="126.67331"
     inkscape:document-units="mm"
     inkscape:current-layer="layer1"
     showgrid="false"
     units="px"
     inkscape:pagecheckerboard="true"
     inkscape:window-width="1280"
     inkscape:window-height="962"
     inkscape:window-x="-8"
     inkscape:window-y="-8"
     inkscape:window-maximized="1">
    <inkscape:grid
       type="xygrid"
       id="grid5512" />
  </sodipodi:namedview>
  <metadata
     id="metadata5485">
    <rdf:RDF>
      <cc:Work
         rdf:about="">
        <dc:format>image/svg+xml</dc:format>
        <dc:type
           rdf:resource="http://purl.org/dc/dcmitype/StillImage" />
        <dc:title></dc:title>
      </cc:Work>
    </rdf:RDF>
  </metadata>
  <g
     inkscape:label="Calque 1"
     inkscape:groupmode="layer"
     id="layer1"
     transform="translate(0,-263.13334)">
    <path
       style="fill:#ffffff;fill-opacity:1;stroke:#000000;stroke-width:0.1792973;stroke-miterlimit:4;stroke-dasharray:none;stroke-opacity:1"
       d="m 24.831851,270.07881 8.648539,2.52816 -0.848833,2.72224 -8.648538,-2.52816 z"
       id="rect5514"
       inkscape:connector-curvature="0" />
    <rect
       style="fill:#ffffff;fill-opacity:1;stroke:#000000;stroke-width:0.28971764;stroke-miterlimit:4;stroke-dasharray:none;stroke-opacity:1"
       id="rect5516"
       width="0.81744939"
       height="6.3688054"
       x="103.32049"
       y="250.5005"
       transform="matrix(0.95983052,0.28058042,-0.29767852,0.95466617,0,0)" />
    <path
       style="fill:#ffffff;fill-opacity:1;stroke:#000000;stroke-width:0.235;stroke-miterlimit:4;stroke-dasharray:none;stroke-opacity:1;stroke-dashoffset:0;stroke-linejoin:miter;paint-order:normal"
       d="m 3.1276483,263.73233 c 6.9403017,1.74389 14.0225637,3.864 21.1834167,6.1924 l -0.790676,2.53572 C 16.168611,269.81838 8.6144946,267.82522 1.0424267,265.88963 Z"
       id="rect5522"
       inkscape:connector-curvature="0"
       sodipodi:nodetypes="ccccc" />
    <rect
       style="fill:#000000;fill-opacity:1;stroke:none;stroke-width:0.18859899;stroke-miterlimit:4;stroke-dasharray:none;stroke-opacity:1"
       id="rect5524"
       width="0.15991923"
       height="6.7399359"
       x="-247.67261"
       y="357.73526"
       transform="matrix(0.98983462,-0.14222312,0.75426863,0.65656594,0,0)" />
    <rect
       style="fill:#000000;fill-opacity:1;stroke:none;stroke-width:0.18859899;stroke-miterlimit:4;stroke-dasharray:none;stroke-opacity:1"
       id="rect5524-8"
       width="0.15991922"
       height="6.7399359"
       x="-246.13948"
       y="359.32416"
       transform="matrix(0.98983462,-0.14222312,0.75426863,0.65656594,0,0)" />
    <path
       style="fill:#000000;fill-opacity:1;stroke:none;stroke-width:0.16410996;stroke-miterlimit:4;stroke-dasharray:none;stroke-opacity:1"
       d="m 29.818293,271.48303 -0.158168,0.0229 3.274784,2.85048 0.03933,-0.12612 z"
       id="rect5524-8-2"
       inkscape:connector-curvature="0" />
    <path
       style="fill:#000000;fill-opacity:1;stroke:none;stroke-width:0.16410996;stroke-miterlimit:4;stroke-dasharray:none;stroke-opacity:1"
       d="m 24.414793,271.42319 -0.158171,0.0229 2.516814,2.19068 0.277883,0.0813 z"
       id="rect5524-8-2-3"
       inkscape:connector-curvature="0" />
    <rect
       style="fill:#000000;fill-opacity:1;stroke:none;stroke-width:0.18859582;stroke-miterlimit:4;stroke-dasharray:none;stroke-opacity:1"
       id="rect5524-85"
       width="0.15776818"
       height="6.8315992"
       x="-362.76193"
       y="242.14731"
       transform="matrix(-0.75330814,-0.65766774,-0.99003596,0.14081477,0,0)" />
    <path
       style="fill:#000000;fill-opacity:1;stroke:none;stroke-width:0.16410996;stroke-miterlimit:4;stroke-dasharray:none;stroke-opacity:1"
       d="m 33.236009,273.63917 -4.285176,0.60977 0.27737,0.0811 3.968327,-0.56423 z"
       id="rect5524-85-4"
       inkscape:connector-curvature="0" />
    <rect
       style="fill:#000000;fill-opacity:1;stroke:none;stroke-width:0.18859582;stroke-miterlimit:4;stroke-dasharray:none;stroke-opacity:1"
       id="rect5524-85-4-9"
       width="0.15776818"
       height="6.8315983"
       x="-361.30811"
       y="243.73958"
       transform="matrix(-0.75330814,-0.65766774,-0.99003596,0.14081478,0,0)" />
    <path
       style="fill:#000000;fill-opacity:1;stroke:none;stroke-width:0.16410996;stroke-miterlimit:4;stroke-dasharray:none;stroke-opacity:1"
       d="m 27.929413,270.92331 -3.51462,0.49988 0.118691,0.10378 3.673813,-0.52243 z"
       id="rect5524-85-4-9-4"
       inkscape:connector-curvature="0" />
    <path
       style="fill:#000000;fill-opacity:1;stroke:#000000;stroke-width:0.33427325;stroke-miterlimit:4;stroke-dasharray:none;stroke-opacity:1"
       d="m 26.837268,271.80982 c -0.308058,-0.26862 -0.563763,-0.49502 -0.568233,-0.5031 -0.0045,-0.008 0.288467,-0.0563 0.650971,-0.1072 l 0.659098,-0.0926 0.576112,0.50164 c 0.316859,0.27591 0.572407,0.50332 0.567881,0.50537 -0.01129,0.005 -1.315136,0.18911 -1.321015,0.18642 -0.0025,-10e-4 -0.256756,-0.22195 -0.564814,-0.49059 z"
       id="path6265"
       inkscape:connector-curvature="0" />
    <path
       style="fill:#000000;fill-opacity:1;stroke:#000000;stroke-width:0.33427325;stroke-miterlimit:4;stroke-dasharray:none;stroke-opacity:1"
       d="m 29.545659,272.6289 c -0.259006,-0.2258 -0.461218,-0.41455 -0.449362,-0.41945 0.04028,-0.0167 1.129292,-0.16444 1.156862,-0.15698 0.05139,0.0139 0.942585,0.80559 0.919932,0.81721 -0.01845,0.009 -1.144493,0.17672 -1.153719,0.17136 -0.0014,-8.6e-4 -0.214708,-0.18635 -0.473713,-0.41214 z"
       id="path6267"
       inkscape:connector-curvature="0" />
    <path
       style="fill:#000000;fill-opacity:1;stroke:#000000;stroke-width:0.33427325;stroke-miterlimit:4;stroke-dasharray:none;stroke-opacity:1"
       d="m 32.005631,273.37468 c -0.228753,-0.20071 -0.421254,-0.3745 -0.42778,-0.38619 -0.0065,-0.0117 0.353036,-0.0728 0.799033,-0.13569 0.445996,-0.063 0.843751,-0.1197 0.883897,-0.12609 l 0.073,-0.0116 -0.146493,0.46981 -0.146493,0.46981 -0.307861,0.0452 c -0.169324,0.0249 -0.308654,0.044 -0.309623,0.0425 -9.6e-4,-0.002 -0.188923,-0.16696 -0.417677,-0.36768 z"
       id="path6269"
       inkscape:connector-curvature="0" />
    <path
       style="fill:#000000;fill-opacity:1;stroke:#000000;stroke-width:0.33427325;stroke-miterlimit:4;stroke-dasharray:none;stroke-opacity:1"
       d="m 31.834151,274.62146 c -0.341876,-0.30001 -0.623658,-0.54919 -0.626178,-0.55375 -0.0054,-0.01 1.110182,-0.16726 1.158733,-0.16367 0.01805,10e-4 0.132554,0.0887 0.254452,0.19402 l 0.221636,0.19161 -0.142036,0.45551 -0.142035,0.45551 -0.05149,-0.0169 c -0.02832,-0.009 -0.331207,-0.26235 -0.673084,-0.56235 z"
       id="path6271"
       inkscape:connector-curvature="0" />
    <path
       style="fill:#000000;fill-opacity:1;stroke:none;stroke-width:0.11124405;stroke-miterlimit:4;stroke-dasharray:none;stroke-opacity:1"
       d=""
       id="path6273"
       inkscape:connector-curvature="0"
       transform="matrix(0.26458333,0,0,0.26458333,0,263.13334)" />
    <path
       style="fill:#000000;fill-opacity:1;stroke:#000000;stroke-width:0.33427325;stroke-miterlimit:4;stroke-dasharray:none;stroke-opacity:1"
       d="m 29.078197,273.76173 c -0.231723,-0.20334 -0.411147,-0.37416 -0.398723,-0.37961 0.01746,-0.008 0.885777,-0.13395 1.236999,-0.1799 0.05041,-0.007 0.126562,0.0504 0.498172,0.37253 0.241265,0.20916 0.428792,0.38482 0.416729,0.39034 -0.04229,0.0194 -1.277027,0.18637 -1.304302,0.17641 -0.01517,-0.006 -0.217156,-0.17644 -0.448875,-0.37977 z"
       id="path6275"
       inkscape:connector-curvature="0" />
    <path
       style="fill:#000000;fill-opacity:1;stroke:#000000;stroke-width:0.33427325;stroke-miterlimit:4;stroke-dasharray:none;stroke-opacity:1"
       d="m 26.330362,273.07699 -0.468772,-0.41179 0.748536,-0.10559 0.748534,-0.1056 0.476896,0.41522 c 0.262293,0.22838 0.473879,0.41636 0.470191,0.41774 -0.02073,0.008 -1.48947,0.21032 -1.497251,0.20647 -0.0052,-0.003 -0.22031,-0.18996 -0.478134,-0.41645 z"
       id="path6277"
       inkscape:connector-curvature="0" />
    <path
       style="fill:#000000;fill-opacity:1;stroke:#000000;stroke-width:0.33427325;stroke-miterlimit:4;stroke-dasharray:none;stroke-opacity:1"
       d="m 24.377845,272.23423 0.163253,-0.52355 0.193556,0.16797 c 0.106458,0.0924 0.329787,0.28555 0.496287,0.42926 l 0.302729,0.26128 -0.09817,0.013 c -0.054,0.007 -0.350788,0.0496 -0.65954,0.0943 l -0.561367,0.0813 z"
       id="path6279"
       inkscape:connector-curvature="0" />
    <path
       style="fill:#000000;fill-opacity:1;stroke:#000000;stroke-width:0.33427325;stroke-miterlimit:4;stroke-dasharray:none;stroke-opacity:1"
       d="m 24.802465,270.87246 0.157387,-0.50475 0.193569,0.16794 c 0.106463,0.0924 0.318776,0.27603 0.471806,0.40815 0.153029,0.13211 0.280186,0.24351 0.282571,0.24755 0.0035,0.006 -1.155089,0.17787 -1.240509,0.18421 -0.01222,9e-4 0.04861,-0.22549 0.135177,-0.5031 z"
       id="path6281"
       inkscape:connector-curvature="0" />
    <rect
       style="fill:#ffffff;fill-opacity:1;stroke:#000000;stroke-width:0.33429989;stroke-miterlimit:4;stroke-dasharray:none;stroke-opacity:1"
       id="rect6314"
       width="1.6232355"
       height="2.5017843"
       x="101.85668"
       y="252.36159"
       transform="matrix(0.95983052,0.28058042,-0.29767852,0.95466617,0,0)" />
  </g>
</svg>
