<?xml version="1.0" encoding="UTF-8" standalone="no"?>
<!-- Created with Inkscape (http://www.inkscape.org/) -->

<svg
   xmlns:dc="http://purl.org/dc/elements/1.1/"
   xmlns:cc="http://creativecommons.org/ns#"
   xmlns:rdf="http://www.w3.org/1999/02/22-rdf-syntax-ns#"
   xmlns:svg="http://www.w3.org/2000/svg"
   xmlns="http://www.w3.org/2000/svg"
   xmlns:sodipodi="http://sodipodi.sourceforge.net/DTD/sodipodi-0.dtd"
   xmlns:inkscape="http://www.inkscape.org/namespaces/inkscape"
   width="64"
   height="64"
   viewBox="0 0 16.933333 16.933334"
   version="1.1"
   id="svg8"
   inkscape:version="0.92.4 (5da689c313, 2019-01-14)"
   sodipodi:docname="samourai2.svg">
  <defs
     id="defs2" />
  <sodipodi:namedview
     id="base"
     pagecolor="#ffffff"
     bordercolor="#666666"
     borderopacity="1.0"
     inkscape:pageopacity="0.0"
     inkscape:pageshadow="2"
     inkscape:zoom="8"
     inkscape:cx="29.726012"
     inkscape:cy="41.393224"
     inkscape:document-units="mm"
     inkscape:current-layer="layer2"
     showgrid="false"
     units="px"
     inkscape:pagecheckerboard="true"
     inkscape:window-width="1280"
     inkscape:window-height="962"
     inkscape:window-x="-8"
     inkscape:window-y="-8"
     inkscape:window-maximized="1"
     showguides="true">
    <inkscape:grid
       type="xygrid"
       id="grid83" />
  </sodipodi:namedview>
  <metadata
     id="metadata5">
    <rdf:RDF>
      <cc:Work
         rdf:about="">
        <dc:format>image/svg+xml</dc:format>
        <dc:type
           rdf:resource="http://purl.org/dc/dcmitype/StillImage" />
        <dc:title></dc:title>
      </cc:Work>
    </rdf:RDF>
  </metadata>
  <g
     inkscape:groupmode="layer"
     id="layer2"
     inkscape:label="baguette">
    <ellipse
       style="fill:#000000;stroke-width:0.28856251"
       id="path62"
       cx="8.5658855"
       cy="1.9347656"
       rx="2.2489583"
       ry="1.8686198" />
    <rect
       style="fill:#ffffff;stroke-width:0.18708865;stroke:#000000;stroke-opacity:1"
       id="rect3788"
       width="0.33072916"
       height="9.4257812"
       x="1.6867105"
       y="3.098834"
       transform="rotate(-55.912641)" />
    <rect
       style="fill:#ffffff;stroke-width:0.18708865;stroke:#000000;stroke-opacity:1"
       id="rect3788-2"
       width="0.33072916"
       height="9.4257812"
       x="-7.8829165"
       y="-10.644238"
       transform="matrix(-0.56735322,-0.82347454,-0.82347454,0.56735322,0,0)"
       inkscape:transform-center-x="5.2891924"
       inkscape:transform-center-y="-1.3755862" />
    <path
       style="fill:#ffffff;stroke-width:1.07067335;stroke:#000000;stroke-opacity:1"
       d="M 20.375,49.277344 25.5,63.875 H 38 l 5.875,-14.021484 c -3.375871,2.41572 -7.330573,3.705208 -11.375,3.708984 -4.356873,-0.008 -8.600212,-1.507612 -12.125,-4.285156 z"
       transform="scale(0.26458333)"
       id="rect3837"
       inkscape:connector-curvature="0"
       sodipodi:nodetypes="cccccc" />
  </g>
  <g
     inkscape:label="corp"
     inkscape:groupmode="layer"
     id="layer1"
     transform="translate(0,-280.06665)">
    <path
       style="fill:#ffffff;stroke-width:0.26458332;stroke:#000000;stroke-opacity:1"
       d="m 14.072526,287.83878 a 5.4735675,5.9365888 0 0 1 -5.473568,5.93658 5.4735675,5.9365888 0 0 1 -5.4735675,-5.93658 5.4735675,5.9365888 0 0 1 5.4735675,-5.93659 5.4735675,5.9365888 0 0 1 5.473568,5.93659 z"
       id="path43"
       inkscape:connector-curvature="0" />
    <path
       inkscape:connector-curvature="0"
       style="fill:#000000;stroke-width:0.13330251"
       d="m 13.811671,289.91228 c -0.07366,0.81357 -1.133136,2.29665 -2.590691,3.16734 -0.807509,0.48237 -1.9154911,0.69574 -2.6220228,0.69574 -0.8298636,0 -2.0593258,-0.24936 -2.9907284,-0.82276 -1.292907,-0.79595 -2.2316672,-2.32181 -2.23167,-3.0597 -4.8e-6,-1.26946 3.174425,-1.90536 5.1562526,-1.9053 1.9818496,6e-5 5.3692476,0.92637 5.2788596,1.92468 z"
       id="path43-6"
       sodipodi:nodetypes="sssssss" />
    <rect
       style="fill:#ffffff;stroke-width:0.18708867"
       id="rect3888"
       width="0.1984375"
       height="4.6632814"
       x="8.4666672"
       y="289.12863" />
    <ellipse
       style="fill:#ffffff;stroke-width:0.26458332"
       id="path3913"
       cx="6.1680989"
       cy="286.61508"
       rx="0.44648436"
       ry="1.2898437" />
    <rect
       style="fill:#000000;stroke-width:0.26458332"
       id="rect4019"
       width="3.1785405"
       height="0.20299886"
       x="4.6928139"
       y="286.35049" />
    <rect
       style="fill:#000000;stroke-width:0.22597775"
       id="rect4019-1"
       width="2.3186445"
       height="0.20299886"
       x="5.0914588"
       y="286.74512" />
    <rect
       style="fill:#000000;stroke-width:0.26458332"
       id="rect4019-4"
       width="3.1785405"
       height="0.20299886"
       x="8.9940634"
       y="286.34937" />
    <rect
       style="fill:#000000;stroke-width:0.22597775"
       id="rect4019-1-5"
       width="2.3186445"
       height="0.20299886"
       x="9.3927078"
       y="286.74399" />
    <rect
       style="fill:#ff0000;stroke:#000000;stroke-width:0.2813518;stroke-opacity:1"
       id="rect4079"
       width="10.289709"
       height="1.0234109"
       x="3.4304323"
       y="283.6727" />
  </g>
  <g
     inkscape:groupmode="layer"
     id="layer3"
     inkscape:label="cheveux">
    <path
       style="fill:#000000;stroke:#000000;stroke-width:0.26458332;stroke-opacity:1"
       d="M 3.4330847,2.3554709 C 6.396224,1.402654 11.640862,1.8798404 13.454179,2.3554522 14.808584,2.7106968 14.072526,7.77213 14.072526,7.77213 13.487067,6.8381318 13.474492,4.7875641 12.891091,4.1235559 10.171467,1.028168 6.7226939,0.6469998 4.1516277,3.9306714 3.6081538,4.6247763 3.6131137,6.9310284 3.0362098,7.9447352 c 0,0 -0.9484818,-5.156656 0.3968749,-5.5892643 z"
       id="rect4016"
       inkscape:connector-curvature="0"
       sodipodi:nodetypes="sscsscs" />
  </g>
</svg>
