<?xml version="1.0" encoding="UTF-8" standalone="no"?>
<!-- Created with Inkscape (http://www.inkscape.org/) -->

<svg
   xmlns:dc="http://purl.org/dc/elements/1.1/"
   xmlns:cc="http://creativecommons.org/ns#"
   xmlns:rdf="http://www.w3.org/1999/02/22-rdf-syntax-ns#"
   xmlns:svg="http://www.w3.org/2000/svg"
   xmlns="http://www.w3.org/2000/svg"
   xmlns:sodipodi="http://sodipodi.sourceforge.net/DTD/sodipodi-0.dtd"
   xmlns:inkscape="http://www.inkscape.org/namespaces/inkscape"
   width="64"
   height="64"
   viewBox="0 0 16.933333 16.933334"
   version="1.1"
   id="svg3730"
   inkscape:version="0.92.4 (5da689c313, 2019-01-14)"
   sodipodi:docname="turret.svg">
  <defs
     id="defs3724" />
  <sodipodi:namedview
     id="base"
     pagecolor="#ffffff"
     bordercolor="#666666"
     borderopacity="1.0"
     inkscape:pageopacity="0.0"
     inkscape:pageshadow="2"
     inkscape:zoom="5.6"
     inkscape:cx="19.787887"
     inkscape:cy="28.985183"
     inkscape:document-units="mm"
     inkscape:current-layer="layer1"
     showgrid="false"
     units="px"
     inkscape:pagecheckerboard="true"
     inkscape:window-width="1280"
     inkscape:window-height="1002"
     inkscape:window-x="1272"
     inkscape:window-y="-8"
     inkscape:window-maximized="1" />
  <metadata
     id="metadata3727">
    <rdf:RDF>
      <cc:Work
         rdf:about="">
        <dc:format>image/svg+xml</dc:format>
        <dc:type
           rdf:resource="http://purl.org/dc/dcmitype/StillImage" />
        <dc:title></dc:title>
      </cc:Work>
    </rdf:RDF>
  </metadata>
  <g
     inkscape:label="Calque 1"
     inkscape:groupmode="layer"
     id="layer1"
     transform="translate(0,-280.06665)">
    <path
       style="fill:#ffffff;stroke-width:1.0377866"
       d="M 32.142578 0.42773438 A 31.964286 31.785714 0 0 0 0.17773438 32.214844 A 31.964286 31.785714 0 0 0 32.142578 64 A 31.964286 31.785714 0 0 0 64.107422 32.214844 A 31.964286 31.785714 0 0 0 32.142578 0.42773438 z M 32.142578 4.5351562 A 26.25 27.499999 0 0 1 58.392578 32.035156 A 26.25 27.499999 0 0 1 32.142578 59.535156 A 26.25 27.499999 0 0 1 5.8925781 32.035156 A 26.25 27.499999 0 0 1 32.142578 4.5351562 z "
       transform="matrix(0.26458333,0,0,0.26458333,0,280.06665)"
       id="path3732" />
    <ellipse
       style="fill:#ffffff;stroke-width:0.25505692"
       id="path3773"
       cx="8.462368"
       cy="288.66092"
       rx="2.9817135"
       ry="2.7759082" />
  </g>
</svg>
