<?xml version="1.0" encoding="UTF-8" standalone="no"?>
<!-- Created with Inkscape (http://www.inkscape.org/) -->

<svg
   xmlns:dc="http://purl.org/dc/elements/1.1/"
   xmlns:cc="http://creativecommons.org/ns#"
   xmlns:rdf="http://www.w3.org/1999/02/22-rdf-syntax-ns#"
   xmlns:svg="http://www.w3.org/2000/svg"
   xmlns="http://www.w3.org/2000/svg"
   xmlns:sodipodi="http://sodipodi.sourceforge.net/DTD/sodipodi-0.dtd"
   xmlns:inkscape="http://www.inkscape.org/namespaces/inkscape"
   width="64"
   height="64"
   viewBox="0 0 16.933333 16.933334"
   version="1.1"
   id="svg8"
   inkscape:version="0.92.4 (5da689c313, 2019-01-14)"
   sodipodi:docname="wand.svg">
  <defs
     id="defs2" />
  <sodipodi:namedview
     id="base"
     pagecolor="#ffffff"
     bordercolor="#666666"
     borderopacity="1.0"
     inkscape:pageopacity="0.0"
     inkscape:pageshadow="2"
     inkscape:zoom="5.6"
     inkscape:cx="9.4970237"
     inkscape:cy="54.453244"
     inkscape:document-units="mm"
     inkscape:current-layer="layer1"
     showgrid="false"
     units="px"
     inkscape:pagecheckerboard="true"
     inkscape:window-width="1280"
     inkscape:window-height="962"
     inkscape:window-x="-8"
     inkscape:window-y="62"
     inkscape:window-maximized="1" />
  <metadata
     id="metadata5">
    <rdf:RDF>
      <cc:Work
         rdf:about="">
        <dc:format>image/svg+xml</dc:format>
        <dc:type
           rdf:resource="http://purl.org/dc/dcmitype/StillImage" />
        <dc:title></dc:title>
      </cc:Work>
    </rdf:RDF>
  </metadata>
  <g
     inkscape:label="Calque 1"
     inkscape:groupmode="layer"
     id="layer1"
     transform="translate(0,-280.06665)">
    <path
       style="fill:#ffffff;stroke-width:0.69226986"
       d="M 32.142578 0.072265625 A 7.8571431 6.4285712 0 0 0 24.753906 4.3378906 A 8.2142861 5.535714 0 0 1 30.177734 9.5351562 A 8.2142861 5.535714 0 0 1 28.994141 12.386719 A 7.8571431 6.4285712 0 0 0 32.142578 12.927734 A 7.8571431 6.4285712 0 0 0 40 6.5 A 7.8571431 6.4285712 0 0 0 32.142578 0.072265625 z "
       transform="matrix(0.26458333,0,0,0.26458333,0,280.06665)"
       id="path10" />
    <path
       style="fill:#ffffff;stroke-width:0.99999994"
       d="M 30.269531 11.5 A 5.714286 5.0892858 0 0 1 31.072266 14.089844 A 5.714286 5.0892858 0 0 1 28.572266 18.291016 L 28.572266 23.482422 A 4.4642856 4.4642856 0 0 1 31.25 27.572266 A 4.4642856 4.4642856 0 0 1 28.572266 31.658203 L 28.572266 33.464844 L 34.107422 33.464844 L 34.107422 24.896484 A 5.5357138 4.9107141 0 0 1 31.427734 20.697266 A 5.5357138 4.9107141 0 0 1 34.107422 16.496094 L 34.107422 11.5 L 30.269531 11.5 z "
       transform="matrix(0.26458333,0,0,0.26458333,0,280.06665)"
       id="rect12" />
  </g>
</svg>
